<svg xmlns="http://www.w3.org/2000/svg" width="760" height="300" viewBox="0 0 760 300">
  <defs>
    <style>
      .label{font:600 18px -apple-system,BlinkMacSystemFont,"PingFang SC",sans-serif;fill:#1f2937}
      .sub{font:400 13px -apple-system,BlinkMacSystemFont,"PingFang SC",sans-serif;fill:#64748b}
      .card{fill:#fff;stroke:#e5e7eb;stroke-width:1}
      .menubar{fill:#6f6ccf}
      .slot{fill:rgba(255,255,255,.12)}
    </style>
  </defs>
  <rect width="760" height="300" fill="#f8fafc"/>
  <text x="34" y="36" class="label">方案 2 反相白底版本</text>
  <text x="34" y="58" class="sub">左：原方案 2 单线框。右：白底终端，内部线条留空/深线模拟。</text>
  <rect x="34" y="80" width="690" height="42" rx="10" class="menubar"/>
  <g transform="translate(118 90)">
    <rect x="-9" y="-5" width="40" height="30" rx="7" class="slot"/>
    <svg x="0" y="0" width="22" height="22" viewBox="0 0 22 22">
      <rect x="3.7" y="5" width="14.6" height="12" rx="2.2" fill="none" stroke="#fff" stroke-width="1.65"/>
      <path d="M6.3 8.5 8.9 11 6.3 13.5M10.8 13.4h4.2" fill="none" stroke="#fff" stroke-width="1.75" stroke-linecap="round" stroke-linejoin="round"/>
    </svg>
  </g>
  <g transform="translate(276 90)">
    <rect x="-9" y="-5" width="40" height="30" rx="7" class="slot"/>
    <svg x="0" y="0" width="22" height="22" viewBox="0 0 22 22">
      <rect x="3.4" y="5" width="15.2" height="12" rx="2.3" fill="#fff"/>
      <path d="M6.4 8.55 9 11 6.4 13.45M10.9 13.4h4.2" fill="none" stroke="#6f6ccf" stroke-width="1.75" stroke-linecap="round" stroke-linejoin="round"/>
    </svg>
  </g>
  <g transform="translate(434 90)">
    <rect x="-9" y="-5" width="40" height="30" rx="7" class="slot"/>
    <svg x="0" y="0" width="22" height="22" viewBox="0 0 22 22">
      <rect x="3.4" y="5" width="15.2" height="12" rx="2.3" fill="#fff"/>
      <path d="M6.4 8.55 9 11 6.4 13.45M10.9 13.4h4.2" fill="none" stroke="#000" stroke-opacity=".72" stroke-width="1.75" stroke-linecap="round" stroke-linejoin="round"/>
    </svg>
  </g>
  <g transform="translate(90 150)">
    <rect width="180" height="120" rx="16" class="card"/>
    <text x="90" y="26" text-anchor="middle" class="label">原方案 2</text>
    <svg x="46" y="36" width="88" height="88" viewBox="0 0 22 22">
      <rect x="3.7" y="5" width="14.6" height="12" rx="2.2" fill="none" stroke="#111827" stroke-width="1.65"/>
      <path d="M6.3 8.5 8.9 11 6.3 13.5M10.8 13.4h4.2" fill="none" stroke="#111827" stroke-width="1.75" stroke-linecap="round" stroke-linejoin="round"/>
    </svg>
  </g>
  <g transform="translate(320 150)">
    <rect width="180" height="120" rx="16" class="card"/>
    <text x="90" y="26" text-anchor="middle" class="label">白底版</text>
    <svg x="46" y="36" width="88" height="88" viewBox="0 0 22 22">
      <rect x="3.4" y="5" width="15.2" height="12" rx="2.3" fill="#111827"/>
      <path d="M6.4 8.55 9 11 6.4 13.45M10.9 13.4h4.2" fill="none" stroke="#fff" stroke-width="1.75" stroke-linecap="round" stroke-linejoin="round"/>
    </svg>
  </g>
  <g transform="translate(550 150)">
    <rect width="120" height="120" rx="16" fill="#111827"/>
    <text x="60" y="104" text-anchor="middle" class="sub" fill="#cbd5e1">暗底模拟</text>
    <svg x="38" y="28" width="44" height="44" viewBox="0 0 22 22">
      <rect x="3.4" y="5" width="15.2" height="12" rx="2.3" fill="#fff"/>
      <path d="M6.4 8.55 9 11 6.4 13.45M10.9 13.4h4.2" fill="none" stroke="#111827" stroke-width="1.75" stroke-linecap="round" stroke-linejoin="round"/>
    </svg>
  </g>
</svg>
